<svg width="32" height="32" viewBox="0 0 32 32" fill="none" xmlns="http://www.w3.org/2000/svg">
<path d="M3.33337 5.66663C3.33337 5.11434 3.78109 4.66663 4.33337 4.66663H5.07773C6.34502 4.66663 7.10381 5.51862 7.5377 6.31062C7.82693 6.83855 8.03614 7.45086 8.1998 8.00523C8.24413 8.00174 8.28902 7.99996 8.33444 7.99996H24.9975C26.1044 7.99996 26.9038 9.05918 26.6003 10.1237L24.1633 18.6692C23.7142 20.2442 22.275 21.3303 20.6372 21.3303H12.7064C11.0551 21.3303 9.60751 20.2265 9.17048 18.6341L8.15649 14.9394L6.47836 9.27433L6.47564 9.26441C6.26804 8.50731 6.0732 7.80002 5.78368 7.27156C5.50253 6.75836 5.27839 6.66663 5.07773 6.66663H4.33337C3.78109 6.66663 3.33337 6.21891 3.33337 5.66663ZM12 28C13.4728 28 14.6667 26.8061 14.6667 25.3333C14.6667 23.8605 13.4728 22.6666 12 22.6666C10.5273 22.6666 9.33337 23.8605 9.33337 25.3333C9.33337 26.8061 10.5273 28 12 28ZM21.3334 28C22.8061 28 24 26.8061 24 25.3333C24 23.8605 22.8061 22.6666 21.3334 22.6666C19.8606 22.6666 18.6667 23.8605 18.6667 25.3333C18.6667 26.8061 19.8606 28 21.3334 28Z" fill="#6667AB"/>
</svg>
