<svg width="32" height="32" viewBox="0 0 32 32" fill="none" xmlns="http://www.w3.org/2000/svg">
<path d="M1.33337 7C1.33337 5.34315 2.81083 4 4.63337 4H19.3C21.1226 4 22.6 5.34315 22.6 7V8H24.8745C26.1498 8 27.3109 8.668 27.8568 9.71574L30.349 14.4988C30.5582 14.9002 30.6667 15.3389 30.6667 15.7831V23C30.6667 24.6569 29.1892 26 27.3667 26H24.7392C24.3901 27.8918 22.5802 29.3333 20.4 29.3333C18.2198 29.3333 16.41 27.8918 16.0609 26H13.0059C12.6567 27.8918 10.8469 29.3333 8.66671 29.3333C6.48155 29.3333 4.66845 27.8852 4.32519 25.9871C2.64715 25.8458 1.33337 24.5624 1.33337 23V7ZM28.4667 20.6667H26.6334C26.0259 20.6667 25.5334 21.1145 25.5334 21.6667C25.5334 22.219 26.0258 22.6667 26.6334 22.6667H28.4667V20.6667ZM28.0022 14.6667L25.8686 10.5719C25.6866 10.2227 25.2996 10 24.8745 10H22.6V14.6667L28.0022 14.6667ZM8.66671 27.3333C9.88173 27.3333 10.8667 26.4379 10.8667 25.3333C10.8667 24.2288 9.88173 23.3333 8.66671 23.3333C7.45168 23.3333 6.46671 24.2288 6.46671 25.3333C6.46671 26.4379 7.45168 27.3333 8.66671 27.3333ZM22.6 25.3333C22.6 24.2288 21.6151 23.3333 20.4 23.3333C19.185 23.3333 18.2 24.2288 18.2 25.3333C18.2 26.4379 19.185 27.3333 20.4 27.3333C21.6151 27.3333 22.6 26.4379 22.6 25.3333Z" fill="#212121"/>
</svg>
