<svg width="37" height="35" viewBox="0 0 37 35" fill="none" xmlns="http://www.w3.org/2000/svg">
<path d="M25.0104 2.08337C26.6155 2.08337 27.9167 3.38455 27.9167 4.98962V12.0447C27.9167 13.1578 27.4746 14.2254 26.6875 15.0127L15.707 25.9958C14.0673 27.6322 11.412 27.6334 9.77004 25.9977L4.00701 20.2432C2.36599 18.6054 2.36388 15.9473 4.00213 14.3066L14.9809 3.31477C15.7683 2.52637 16.8368 2.08337 17.9511 2.08337H25.0104ZM21.4583 6.60702C20.3883 6.60702 19.5209 7.47446 19.5209 8.54449C19.5209 9.61452 20.3883 10.482 21.4583 10.482C22.5284 10.482 23.3958 9.61452 23.3958 8.54449C23.3958 7.47446 22.5284 6.60702 21.4583 6.60702Z" fill="#212121"/>
<path d="M32.7397 26.7004C33.0432 26.4186 33.5177 26.4361 33.7996 26.7397C34.0814 27.0432 34.0639 27.5177 33.7603 27.7996L29.5103 31.7996C29.2226 32.0668 28.7774 32.0668 28.4897 31.7996L24.2397 27.7996C23.9361 27.5177 23.9186 27.0432 24.2004 26.7397C24.4823 26.4361 24.9568 26.4186 25.2603 26.7004L29 30.2265L32.7397 26.7004ZM32.7397 22.7004C33.0432 22.4186 33.5177 22.4361 33.7996 22.7397C34.0814 23.0432 34.0639 23.5177 33.7603 23.7996L29.5103 27.7996C29.2226 28.0668 28.7774 28.0668 28.4897 27.7996L24.2397 23.7996C23.9361 23.5177 23.9186 23.0432 24.2004 22.7397C24.4823 22.4361 24.9568 22.4186 25.2603 22.7004L29 26.2265L32.7397 22.7004Z" fill="#212121"/>
</svg>
