<svg width="32" height="32" viewBox="0 0 32 32" fill="none" xmlns="http://www.w3.org/2000/svg">
<path d="M16 2.66663V10.6666C16 12.1394 17.1939 13.3333 18.6667 13.3333H26.6667V26.6666C26.6667 28.1394 25.4728 29.3333 24 29.3333H14.9206C16.415 27.7761 17.3334 25.6619 17.3334 23.3333C17.3334 18.5468 13.4532 14.6666 8.66671 14.6666C7.48551 14.6666 6.3595 14.9029 5.33337 15.3308V5.33329C5.33337 3.86053 6.52728 2.66663 8.00004 2.66663H16Z" fill="#212121"/>
<path d="M18 3.33329V10.6666C18 11.0348 18.2985 11.3333 18.6667 11.3333H26L18 3.33329Z" fill="#212121"/>
<path d="M16 23.3333C16 27.3834 12.7168 30.6666 8.66671 30.6666C4.61662 30.6666 1.33337 27.3834 1.33337 23.3333C1.33337 19.2832 4.61662 16 8.66671 16C12.7168 16 16 19.2832 16 23.3333ZM13.1381 20.1952C12.8778 19.9349 12.4557 19.9349 12.1953 20.1952L7.33337 25.0571L5.13811 22.8619C4.87776 22.6015 4.45565 22.6015 4.1953 22.8619C3.93495 23.1222 3.93495 23.5443 4.1953 23.8047L6.86197 26.4714C7.12232 26.7317 7.54443 26.7317 7.80478 26.4714L13.1381 21.138C13.3985 20.8777 13.3985 20.4556 13.1381 20.1952Z" fill="#212121"/>
</svg>
