<svg width="32" height="32" viewBox="0 0 32 32" fill="none" xmlns="http://www.w3.org/2000/svg">
<ellipse cx="16" cy="15.6279" rx="16" ry="15.6279" fill="white"/>
<path d="M8.54429 20.0366C9.11153 18.9368 11.0813 17.7444 11.168 17.6922C11.4211 17.5445 11.6853 17.4662 11.9324 17.4662C12.3 17.4662 12.6008 17.6389 12.783 17.953C13.0711 18.3064 13.4285 18.7196 13.5152 18.7836C14.1864 19.2506 14.7118 19.1976 15.2932 18.6014L18.5378 15.2734C19.1155 14.6809 19.1686 14.1354 18.7164 13.4508C18.6531 13.3612 18.2502 12.9945 17.9056 12.6987C17.6858 12.5645 17.535 12.3652 17.4689 12.1207C17.381 11.7953 17.4457 11.4126 17.6531 11.0397C17.7019 10.954 18.8652 8.9335 19.937 8.35204C20.137 8.2434 20.3624 8.18604 20.5884 8.18604C20.9607 8.18604 21.311 8.33495 21.5743 8.60468L22.2912 9.33969C23.4251 10.5023 23.8356 11.8202 23.5118 13.2567C23.2418 14.4538 22.4548 15.7277 21.1723 17.0427L17.0183 21.303C15.3952 22.9677 13.8477 23.8119 12.4189 23.8119C12.4189 23.8119 12.4189 23.8119 12.4186 23.8119C11.3677 23.8119 10.3881 23.3539 9.50757 22.4508L8.7909 21.7158C8.35531 21.2694 8.25644 20.5943 8.54429 20.0366Z" fill="black"/>
</svg>
