<svg width="32" height="32" viewBox="0 0 32 32" fill="none" xmlns="http://www.w3.org/2000/svg">
<ellipse cx="16" cy="15.6279" rx="16" ry="15.6279" fill="white"/>
<path d="M21.6253 8.93145C21.4086 8.94115 21.2067 9.00515 21.029 9.07801C20.8625 9.14592 20.2264 9.42259 19.2245 9.85831C18.2217 10.2944 16.8939 10.8725 15.4775 11.4902C12.6446 12.7256 9.45974 14.1162 7.82844 14.8279C7.7671 14.8547 7.55306 14.924 7.32588 15.1039C7.09871 15.2837 6.85718 15.6564 6.85718 16.0716C6.85718 16.4065 7.01454 16.7392 7.21261 16.9378C7.41068 17.1364 7.62027 17.2345 7.7998 17.3088C8.45118 17.5783 10.4714 18.4167 10.8529 18.5749C10.9872 18.992 11.7184 21.2603 11.888 21.8163C11.9997 22.1831 12.1061 22.4129 12.2447 22.5953C12.314 22.6864 12.3945 22.7663 12.4921 22.829C12.5311 22.854 12.5738 22.8733 12.617 22.891L12.6197 22.8923C12.6296 22.8964 12.6382 22.9033 12.6483 22.9068C12.6673 22.9136 12.6801 22.9144 12.7056 22.9201C12.8071 22.9533 12.9096 22.9742 13.0011 22.9742C13.3912 22.9742 13.63 22.7563 13.63 22.7563L13.6443 22.7458L15.6506 20.9858L18.084 23.3201C18.1182 23.3692 18.4378 23.8139 19.1425 23.8139C19.5609 23.8139 19.8928 23.601 20.1059 23.3742C20.319 23.1475 20.4518 22.9093 20.5082 22.6098V22.6085C20.561 22.3254 22.8036 10.6505 22.8036 10.6505L22.7997 10.6663C22.8653 10.3625 22.8825 10.0795 22.8101 9.80021C22.7377 9.52095 22.5468 9.25358 22.3101 9.1097C22.0735 8.96585 21.842 8.92176 21.6253 8.93145ZM21.5003 10.3442C21.4971 10.3639 21.5027 10.354 21.4977 10.3772L21.4964 10.3851L21.4951 10.393C21.4951 10.393 19.2803 21.9187 19.1985 22.3576C19.2044 22.3245 19.1771 22.3904 19.149 22.4302C19.1093 22.4025 19.0279 22.3668 19.0279 22.3668L19.0149 22.3523L15.691 19.1638L13.3409 21.2235L14.0401 18.3848C14.0401 18.3848 18.4105 13.7971 18.6738 13.5301C18.8857 13.3165 18.9303 13.242 18.9303 13.1683C18.9303 13.0696 18.8795 12.998 18.7662 12.998C18.6642 12.998 18.5271 13.0985 18.4537 13.1459C17.4984 13.7634 13.3044 16.2422 11.4245 17.351C11.1257 17.227 9.05008 16.3654 8.34662 16.0743C8.35195 16.0719 8.35019 16.0728 8.35573 16.0703C9.98746 15.3584 13.171 13.9678 16.0034 12.7326C17.4197 12.115 18.7485 11.5365 19.7505 11.1007C20.737 10.6717 21.4225 10.3764 21.5003 10.3442Z" fill="black"/>
</svg>
