<svg width="32" height="32" viewBox="0 0 32 32" fill="none" xmlns="http://www.w3.org/2000/svg">
<path d="M14.4447 3.33352C15.2452 2.34326 16.755 2.34325 17.5555 3.33352L19.3817 5.59267L22.187 4.8384C23.4167 4.50777 24.6381 5.39519 24.7037 6.66685L24.8532 9.56796L27.5661 10.6067C28.7553 11.062 29.2218 12.4978 28.5274 13.5652L26.9431 16.0001L28.5274 18.4351C29.2218 19.5024 28.7553 20.9383 27.5661 21.3936L24.8532 22.4323L24.7037 25.3334C24.6381 26.605 23.4167 27.4925 22.187 27.1618L19.3817 26.4076L17.5555 28.6667C16.755 29.657 15.2452 29.657 14.4447 28.6667L12.6185 26.4076L9.81319 27.1618C8.58352 27.4925 7.36208 26.605 7.29654 25.3334L7.147 22.4323L4.43409 21.3936C3.24493 20.9383 2.77838 19.5024 3.47281 18.4351L5.05707 16.0001L3.47281 13.5652C2.77838 12.4979 3.24493 11.062 4.43409 10.6067L7.147 9.56796L7.29654 6.66685C7.36208 5.39519 8.58351 4.50777 9.81319 4.8384L12.6185 5.59267L14.4447 3.33352ZM20.2406 12.328L14.4991 18.0849L11.7071 15.293L11.5686 15.1772C11.1789 14.9072 10.64 14.9458 10.2929 15.293C9.90237 15.6835 9.90237 16.3166 10.2929 16.7072L13.7929 20.2072L13.9315 20.323C14.3216 20.5931 14.8611 20.5541 15.2081 20.2062L21.6567 13.7403L21.7722 13.6017C22.0417 13.2116 22.0024 12.6728 21.6548 12.3261C21.2637 11.9361 20.6306 11.937 20.2406 12.328ZM7.147 9.56796L7.50456 10.5018L7.147 9.56796Z" fill="#212121"/>
</svg>
